<svg width="20" height="20" viewBox="0 0 20 20" fill="none" xmlns="http://www.w3.org/2000/svg">
<path d="M15.9275 17.1516L10.9135 12.1374C10.5002 12.4298 10.0458 12.6595 9.55021 12.8264C9.05479 12.9934 8.525 13.0768 7.96084 13.0768C6.54153 13.0768 5.33417 12.5791 4.33875 11.5837C3.34334 10.5881 2.84563 9.38099 2.84563 7.96224C2.84563 6.54349 3.34334 5.33634 4.33875 4.34078C5.33417 3.34536 6.54132 2.84766 7.96021 2.84766C9.37896 2.84766 10.586 3.34536 11.5815 4.34078C12.577 5.33634 13.0748 6.5437 13.0748 7.96287C13.0748 8.53036 12.9913 9.06023 12.8244 9.55245C12.6573 10.0445 12.4276 10.4956 12.1354 10.9056L17.1544 15.9295L15.9275 17.1516ZM7.96021 11.3477C8.90243 11.3477 9.70223 11.019 10.3596 10.3616C11.0169 9.70439 11.3456 8.9046 11.3456 7.96224C11.3456 7.01988 11.0169 6.22009 10.3596 5.56287C9.70223 4.9055 8.90243 4.57682 7.96021 4.57682C7.01785 4.57682 6.21799 4.9055 5.56063 5.56287C4.9034 6.22009 4.57479 7.01988 4.57479 7.96224C4.57479 8.9046 4.9034 9.70439 5.56063 10.3616C6.21799 11.019 7.01785 11.3477 7.96021 11.3477Z" fill="#393939"/>
</svg>
